<svg viewBox="0 0 113 177" fill="none" xmlns="http://www.w3.org/2000/svg">
<mask id="path-1-inside-1_34_34" fill="white">
<path fill-rule="evenodd" clip-rule="evenodd" d="M90.1565 111.165C101.462 90.2765 113 68.957 113 53.9149C113 24.1385 87.7041 -2.51532e-05 56.5 -2.51532e-05C25.2959 -2.51532e-05 0 24.1385 0 53.9149C0 68.957 11.5384 90.2765 22.8435 111.165C25.7502 116.536 28.6415 121.878 31.3173 127.078C41.6163 147.091 49.6242 164.993 53.6458 174.282C54.7111 176.743 58.2889 176.743 59.3542 174.282C63.3758 164.993 71.3837 147.091 81.6827 127.078C84.3585 121.878 87.2498 116.536 90.1565 111.165ZM57 69C66.9411 69 75 60.9411 75 51C75 41.0589 66.9411 33 57 33C47.0589 33 39 41.0589 39 51C39 60.9411 47.0589 69 57 69Z"/>
</mask>
<path fill-rule="evenodd" clip-rule="evenodd" d="M90.1565 111.165C101.462 90.2765 113 68.957 113 53.9149C113 24.1385 87.7041 -2.51532e-05 56.5 -2.51532e-05C25.2959 -2.51532e-05 0 24.1385 0 53.9149C0 68.957 11.5384 90.2765 22.8435 111.165C25.7502 116.536 28.6415 121.878 31.3173 127.078C41.6163 147.091 49.6242 164.993 53.6458 174.282C54.7111 176.743 58.2889 176.743 59.3542 174.282C63.3758 164.993 71.3837 147.091 81.6827 127.078C84.3585 121.878 87.2498 116.536 90.1565 111.165ZM57 69C66.9411 69 75 60.9411 75 51C75 41.0589 66.9411 33 57 33C47.0589 33 39 41.0589 39 51C39 60.9411 47.0589 69 57 69Z" fill="#3ED328"/>
<path d="M90.1565 111.165L85.7592 108.785L85.7592 108.785L90.1565 111.165ZM22.8435 111.165L27.2408 108.785L27.2408 108.785L22.8435 111.165ZM31.3173 127.078L35.7632 124.79L35.7632 124.79L31.3173 127.078ZM81.6827 127.078L77.2368 124.79L77.2368 124.79L81.6827 127.078ZM59.3542 174.282L63.9426 176.269L59.3542 174.282ZM108 53.9149C108 60.3498 105.481 68.6453 101.237 78.3431C97.0392 87.9359 91.4364 98.2952 85.7592 108.785L94.5538 113.545C100.182 103.146 106.001 92.4016 110.398 82.352C114.75 72.4074 118 62.5221 118 53.9149H108ZM56.5 4.99997C85.1659 4.99997 108 27.118 108 53.9149H118C118 21.159 90.2423 -5.00003 56.5 -5.00003V4.99997ZM5 53.9149C5 27.118 27.8341 4.99997 56.5 4.99997V-5.00003C22.7577 -5.00003 -5 21.159 -5 53.9149H5ZM27.2408 108.785C21.5636 98.2952 15.9608 87.9359 11.763 78.3431C7.51922 68.6453 5 60.3498 5 53.9149H-5C-5 62.5221 -1.75002 72.4074 2.60172 82.352C6.99939 92.4016 12.8184 103.146 18.4462 113.545L27.2408 108.785ZM35.7632 124.79C33.0594 119.536 30.1427 114.147 27.2408 108.785L18.4462 113.545C21.3578 118.925 24.2237 124.22 26.8714 129.365L35.7632 124.79ZM58.2342 172.295C54.1855 162.944 46.1294 144.934 35.7632 124.79L26.8714 129.365C37.1032 149.248 45.063 167.043 49.0574 176.269L58.2342 172.295ZM77.2368 124.79C66.8706 144.934 58.8146 162.944 54.7658 172.295L63.9426 176.269C67.937 167.043 75.8968 149.248 86.1286 129.365L77.2368 124.79ZM85.7592 108.785C82.8573 114.147 79.9406 119.536 77.2368 124.79L86.1286 129.365C88.7763 124.22 91.6422 118.925 94.5538 113.545L85.7592 108.785ZM70 51C70 58.1797 64.1797 64 57 64V74C69.7025 74 80 63.7025 80 51H70ZM57 38C64.1797 38 70 43.8203 70 51H80C80 38.2975 69.7025 28 57 28V38ZM44 51C44 43.8203 49.8203 38 57 38V28C44.2975 28 34 38.2975 34 51H44ZM57 64C49.8203 64 44 58.1797 44 51H34C34 63.7025 44.2975 74 57 74V64ZM49.0574 176.269C51.8622 182.747 61.1378 182.747 63.9426 176.269L54.7658 172.295C55.122 171.473 55.9229 171.127 56.5 171.127C57.0771 171.127 57.878 171.473 58.2342 172.295L49.0574 176.269Z" fill="black" fill-opacity="0.5" mask="url(#path-1-inside-1_34_34)"/>
</svg>
